<?xml version="1.0" standalone="no"?>
<!DOCTYPE svg PUBLIC "-//W3C//DTD SVG 20010904//EN"
 "http://www.w3.org/TR/2001/REC-SVG-20010904/DTD/svg10.dtd">
<svg version="1.0" xmlns="http://www.w3.org/2000/svg"
 width="1160.000000pt" height="1160.000000pt" viewBox="0 0 1160.000000 1160.000000"
 preserveAspectRatio="xMidYMid meet">
<metadata>
Created by potrace 1.14, written by Peter Selinger 2001-2017
</metadata>
<g transform="translate(0.000000,1160.000000) scale(0.100000,-0.100000)"
fill="#000000" stroke="none">
<path d="M4265 8998 c-15 -23 -32 -47 -37 -52 -9 -11 -109 -149 -170 -236 -18
-25 -40 -54 -50 -64 -10 -11 -18 -23 -18 -28 0 -7 -19 -33 -46 -62 -5 -6 -19
-26 -30 -44 -17 -30 -17 -34 -3 -42 9 -5 55 -38 102 -72 47 -35 95 -70 107
-78 28 -19 192 -137 205 -148 6 -4 39 -28 75 -52 36 -25 71 -51 79 -58 8 -7
25 -21 38 -30 24 -15 26 -15 45 9 10 13 26 35 36 49 16 25 98 139 251 349 45
62 84 118 87 125 3 7 -62 59 -148 121 -84 60 -154 113 -156 117 -2 4 -8 8 -13
8 -8 0 -69 43 -119 84 -9 6 -38 27 -65 46 -28 18 -52 36 -55 39 -5 6 -56 42
-76 54 -7 4 -23 -11 -39 -35z"/>
<path d="M7560 8973 c-25 -35 -50 -70 -55 -76 -6 -7 -26 -34 -45 -62 -18 -27
-36 -52 -40 -55 -3 -3 -44 -59 -90 -125 -46 -66 -87 -122 -90 -125 -3 -3 -22
-27 -40 -55 -19 -27 -44 -62 -55 -76 -11 -15 -28 -37 -37 -50 -9 -13 -112
-157 -229 -319 -117 -162 -254 -353 -305 -425 -52 -71 -102 -138 -111 -148
-10 -10 -18 -21 -18 -25 0 -4 -19 -32 -41 -62 -35 -46 -279 -383 -332 -459 -9
-13 -23 -29 -29 -36 -7 -8 -13 -16 -13 -20 0 -3 -5 -11 -10 -18 -6 -7 -35 -46
-65 -87 -30 -41 -58 -80 -62 -85 -4 -6 -24 -33 -43 -60 -19 -28 -38 -51 -42
-53 -4 -2 -8 -10 -8 -18 0 -8 -7 -17 -15 -20 -8 -4 -15 -11 -15 -16 0 -6 -11
-24 -25 -42 -14 -17 -29 -36 -33 -41 -5 -6 -17 -24 -28 -40 -23 -36 -34 -50
-56 -76 -10 -10 -18 -22 -18 -25 0 -3 -15 -25 -32 -48 -18 -24 -40 -54 -48
-66 -8 -12 -24 -34 -34 -47 -11 -14 -45 -62 -77 -107 -32 -44 -61 -85 -66 -91
-5 -5 -20 -26 -33 -45 -13 -19 -28 -39 -33 -45 -4 -5 -35 -48 -68 -95 -33 -47
-65 -92 -72 -100 -7 -8 -37 -50 -67 -93 -30 -43 -71 -99 -90 -125 -19 -27 -44
-61 -55 -76 -11 -15 -41 -57 -67 -92 -27 -35 -48 -67 -48 -73 0 -5 -4 -11 -8
-13 -5 -1 -55 -68 -112 -148 -58 -80 -108 -149 -113 -155 -10 -12 -105 -145
-224 -314 -49 -68 -100 -138 -115 -156 -16 -18 -28 -35 -28 -39 0 -3 -7 -14
-15 -23 -13 -16 -296 -407 -335 -463 -8 -12 -26 -37 -40 -55 -14 -18 -32 -42
-40 -54 -66 -96 -373 -519 -385 -532 -8 -9 -15 -21 -15 -27 0 -5 -3 -12 -7
-14 -12 -5 -63 -75 -63 -86 0 -5 12 -18 27 -28 15 -9 36 -26 47 -36 11 -10 23
-18 27 -18 4 0 14 -6 21 -13 7 -7 72 -54 143 -105 72 -51 139 -99 150 -108 11
-8 45 -33 75 -54 30 -22 60 -43 65 -48 6 -5 24 -17 40 -28 17 -10 33 -23 37
-28 4 -6 9 -8 11 -6 2 3 50 70 107 150 57 80 118 163 135 186 16 23 37 51 45
64 8 12 26 37 40 55 14 18 31 41 38 51 19 28 130 183 235 326 50 70 102 142
114 160 13 18 26 38 31 43 4 6 19 26 32 45 14 19 27 37 31 40 3 3 15 22 28 43
12 20 27 37 32 37 5 0 9 5 9 10 0 6 5 16 10 23 12 13 76 102 100 137 14 21 60
83 78 105 4 6 23 33 42 60 19 28 37 52 42 53 4 2 8 10 8 17 0 8 6 18 13 22 7
4 23 25 36 46 13 21 28 43 35 50 6 6 38 50 71 97 33 47 65 92 72 100 7 8 86
119 177 245 91 127 172 239 180 250 8 11 37 52 65 90 28 39 58 79 66 90 9 11
24 32 33 48 9 15 20 27 24 27 4 0 8 5 8 11 0 6 12 26 28 44 15 18 60 79 99
136 63 91 319 446 340 474 5 6 26 35 48 65 22 30 43 57 47 58 5 2 8 8 8 13 0
5 17 32 38 59 20 26 78 105 127 174 81 114 125 174 178 247 10 13 63 87 118
164 55 77 108 151 119 165 11 14 74 102 141 195 67 94 147 204 178 247 31 42
63 86 71 98 20 29 88 123 99 135 4 6 32 46 62 88 29 42 57 77 61 77 4 0 8 4 8
9 0 8 264 379 394 556 79 107 186 259 186 264 0 4 -55 47 -122 96 -68 48 -145
105 -173 125 -27 20 -70 51 -95 69 -25 17 -70 50 -100 71 -30 22 -66 48 -79
58 -13 9 -35 24 -50 34 l-26 16 -45 -65z"/>
<path d="M10852 8943 c-39 -54 -75 -102 -79 -108 -5 -5 -42 -57 -83 -115 -41
-58 -78 -109 -83 -115 -29 -37 -107 -147 -107 -150 0 -2 -9 -14 -20 -27 -11
-12 -54 -72 -97 -133 -42 -60 -80 -112 -83 -115 -3 -3 -39 -52 -80 -110 -40
-58 -83 -117 -94 -131 -12 -14 -28 -36 -36 -49 -39 -57 -140 -197 -154 -212
-9 -10 -16 -20 -16 -23 0 -3 -5 -11 -10 -18 -11 -12 -202 -276 -297 -409 -26
-38 -54 -76 -61 -85 -7 -10 -53 -74 -103 -143 -50 -69 -99 -136 -109 -150 -10
-14 -85 -117 -166 -230 -81 -113 -163 -227 -184 -255 -20 -27 -57 -79 -83
-115 -26 -36 -52 -73 -59 -82 -7 -9 -20 -26 -28 -38 -8 -12 -69 -97 -136 -188
-184 -255 -337 -468 -354 -493 -8 -12 -24 -34 -36 -48 -11 -14 -36 -48 -54
-76 -19 -27 -36 -52 -40 -55 -3 -3 -61 -84 -130 -180 -69 -96 -127 -177 -130
-180 -3 -3 -68 -93 -145 -200 -76 -107 -143 -196 -147 -198 -4 -2 -8 -8 -8
-13 0 -6 -5 -15 -10 -22 -6 -7 -33 -43 -61 -82 -27 -38 -55 -77 -62 -85 -41
-52 -67 -90 -67 -98 0 -6 -3 -12 -7 -14 -10 -4 -73 -85 -73 -92 0 -3 -7 -14
-16 -23 -9 -10 -43 -56 -76 -103 -32 -47 -68 -96 -78 -110 -28 -37 -81 -111
-105 -145 -83 -118 -210 -291 -217 -293 -4 -2 -8 -8 -8 -12 0 -5 -28 -47 -62
-94 -131 -177 -171 -237 -162 -245 5 -4 68 -50 139 -101 72 -51 148 -106 170
-122 22 -16 63 -46 91 -66 28 -20 64 -46 79 -57 15 -11 57 -41 93 -67 l65 -47
24 32 c13 17 33 44 45 60 12 16 29 39 38 52 8 13 55 79 104 147 49 68 159 220
244 338 86 118 174 240 196 271 23 30 49 66 58 80 10 13 32 44 50 69 17 24 35
49 40 55 5 5 36 48 69 95 33 47 68 96 77 109 9 13 26 35 37 50 12 14 32 43 45
63 14 21 28 38 33 38 4 0 7 4 7 9 0 5 67 101 148 213 180 248 336 463 380 526
17 26 38 54 45 62 7 8 39 53 72 100 33 47 65 91 72 98 6 6 15 21 18 32 3 11
10 20 15 20 5 0 16 12 24 28 8 15 23 36 33 47 10 11 31 39 46 63 15 23 34 50
42 60 31 38 85 112 85 117 0 3 7 13 15 22 12 15 209 287 257 356 7 10 29 40
48 66 45 61 56 76 145 201 41 58 81 112 88 120 8 8 23 29 33 45 10 17 22 35
27 40 32 42 68 91 102 140 22 31 51 72 65 90 14 18 32 43 40 55 27 39 243 339
320 444 25 33 67 93 95 131 27 39 53 72 57 73 4 2 8 10 8 17 0 7 4 15 8 17 7
3 111 144 137 186 6 9 15 21 20 28 6 6 17 21 25 34 8 12 31 43 50 69 19 26 60
83 90 125 30 43 78 108 105 145 28 37 55 75 60 83 14 24 248 347 260 361 6 7
26 34 45 62 19 27 40 55 47 62 6 7 21 29 34 50 13 21 26 40 29 43 3 3 14 16
23 29 16 24 15 24 -41 65 -31 22 -63 46 -70 53 -7 7 -17 13 -22 13 -5 0 -15 6
-22 13 -7 7 -53 42 -103 77 -49 35 -92 67 -95 70 -3 3 -13 10 -22 15 -17 10
-170 121 -224 162 l-32 24 -70 -98z"/>
<path d="M3615 8097 c-72 -100 -138 -191 -147 -201 -10 -11 -18 -23 -18 -28 0
-4 -8 -16 -17 -26 -10 -10 -31 -37 -46 -60 -15 -23 -34 -50 -42 -60 -8 -9 -48
-64 -89 -122 -41 -58 -81 -113 -88 -122 -7 -9 -20 -26 -28 -38 -8 -12 -35 -50
-60 -84 -25 -34 -57 -80 -73 -102 -15 -22 -36 -50 -46 -60 -10 -11 -24 -31
-31 -45 -7 -13 -34 -51 -59 -84 -25 -33 -62 -83 -81 -110 -19 -28 -38 -54 -43
-60 -4 -5 -40 -55 -79 -110 -40 -55 -75 -102 -78 -105 -3 -3 -9 -12 -15 -22
-18 -29 -140 -200 -155 -217 -8 -9 -35 -46 -60 -81 -38 -55 -121 -170 -147
-205 -5 -5 -37 -50 -72 -100 -36 -49 -96 -131 -133 -182 -37 -51 -68 -96 -68
-102 0 -5 -4 -11 -9 -13 -5 -1 -21 -22 -37 -44 -78 -112 -158 -219 -165 -222
-5 -2 -9 -9 -9 -16 0 -7 -8 -21 -18 -32 -9 -11 -28 -35 -41 -54 -13 -18 -54
-75 -90 -124 -113 -157 -223 -309 -325 -452 -55 -77 -102 -141 -106 -144 -3
-3 -28 -38 -55 -77 -26 -40 -52 -73 -57 -73 -4 0 -8 -5 -8 -11 0 -9 -33 -58
-85 -124 -8 -11 -41 -56 -72 -100 -51 -72 -176 -245 -196 -270 -37 -47 -411
-571 -432 -604 -5 -9 -13 -18 -16 -21 -3 -3 -54 -71 -112 -153 l-106 -147 92
-68 c51 -37 108 -79 127 -92 19 -13 41 -30 48 -37 8 -7 23 -18 35 -25 12 -6
40 -26 63 -45 23 -18 46 -33 52 -33 6 0 12 -4 14 -9 1 -4 51 -43 110 -84 l107
-77 73 101 c40 56 86 120 102 143 16 22 31 43 35 46 3 3 20 25 36 50 17 25 33
50 38 55 33 44 84 114 184 255 45 63 86 120 90 125 9 10 106 144 228 315 97
136 149 205 158 208 4 2 7 8 7 14 0 9 40 67 73 102 9 11 17 26 17 33 0 7 3 13
8 13 4 1 22 22 40 48 54 77 132 186 145 202 7 8 21 29 31 45 10 17 25 37 33
45 8 8 39 51 70 95 48 68 171 239 196 270 11 15 401 557 471 655 33 47 64 87
68 88 4 2 8 8 8 14 0 5 6 15 13 22 6 8 19 24 27 36 19 27 235 328 256 355 45
60 115 157 124 174 5 11 16 25 23 33 7 7 24 29 37 48 13 19 28 40 32 45 5 6
35 48 69 95 33 47 65 92 72 101 7 8 23 31 37 50 13 19 28 39 32 44 5 6 36 48
69 95 33 47 67 94 75 105 8 11 51 71 97 133 45 63 87 121 92 130 6 9 12 19 15
22 3 3 17 21 30 40 13 19 30 41 37 48 7 7 13 17 13 22 0 5 6 15 13 22 8 7 38
47 67 88 29 41 57 77 62 78 4 2 8 8 8 13 0 9 6 18 36 52 5 7 13 19 17 27 4 8
28 42 52 75 25 33 71 96 102 140 31 44 59 82 62 85 3 3 19 25 36 48 l29 44
-24 19 c-14 10 -43 31 -65 46 -34 24 -65 46 -110 81 -5 4 -32 23 -60 42 -27
19 -54 38 -60 42 -39 30 -77 58 -120 88 -27 19 -54 38 -60 43 -26 20 -122 89
-135 97 -12 6 -44 -32 -145 -173z"/>
</g>
</svg>
